<svg id="visual" viewBox="0 0 900 600" width="900" height="600" xmlns="http://www.w3.org/2000/svg" xmlns:xlink="http://www.w3.org/1999/xlink" version="1.1"><rect x="0" y="0" width="900" height="600" fill="#020617"></rect><defs><linearGradient id="grad1_0" x1="33.3%" y1="0%" x2="100%" y2="100%"><stop offset="20%" stop-color="#020617" stop-opacity="1"></stop><stop offset="80%" stop-color="#020617" stop-opacity="1"></stop></linearGradient></defs><defs><linearGradient id="grad2_0" x1="0%" y1="0%" x2="66.7%" y2="100%"><stop offset="20%" stop-color="#020617" stop-opacity="1"></stop><stop offset="80%" stop-color="#020617" stop-opacity="1"></stop></linearGradient></defs><g transform="translate(900, 0)"><path d="M0 297.5C-41.8 296.1 -83.6 294.8 -113.8 274.8C-144.1 254.8 -162.9 216.2 -186.7 186.7C-210.5 157.2 -239.4 136.7 -258.7 107.2C-278 77.6 -287.7 38.8 -297.5 0L0 0Z" fill="#FBAE3C"></path></g><g transform="translate(0, 600)"><path d="M0 -297.5C25.4 -263 50.7 -228.5 91.1 -219.9C131.4 -211.3 186.8 -228.6 210.3 -210.3C233.8 -192.1 225.5 -138.2 234.7 -97.2C243.9 -56.2 270.7 -28.1 297.5 0L0 0Z" fill="#FBAE3C"></path></g></svg>